# xmcd
#
# Track frame offsets:
#   150
#   14336
#   30375
#   44408
#   59581
#   75052
#   91601
#   107194
#   121384
#   137285
#   154312
#   170765
#   188644
#
# Disc length: 2788 seconds
#
# Revision: 0
# Processed by: cddbd v1.4PL0 Copyright (c) Steve Scherf et al.
# Submitted via: uFREEDB 1.6.0
#
DISCID=990ae20d
DTITLE=Jayhawks - Tomorrow The Green Grass
DYEAR=1995
DGENRE=Rock
TTITLE0=Blue
TTITLE1=I'd Run Away
TTITLE2=Miss Williams' Guitar
TTITLE3=Two Hearts
TTITLE4=Real Light
TTITLE5=Over My Shoulder
TTITLE6=Bad Time
TTITLE7=See Him On The Street
TTITLE8=Nothing Left To Borrow
TTITLE9=Ann Jane
TTITLE10=Pray For Me
TTITLE11=Red's Song
TTITLE12=Ten Little Kids
EXTD=
EXTT0=
EXTT1=
EXTT2=
EXTT3=
EXTT4=
EXTT5=
EXTT6=
EXTT7=
EXTT8=
EXTT9=
EXTT10=
EXTT11=
EXTT12=
PLAYORDER=
